<svg xmlns="http://www.w3.org/2000/svg" version="1.1" xmlns:xlink="http://www.w3.org/1999/xlink" xmlns:svgjs="http://svgjs.com/svgjs" width="512" height="512" x="0" y="0" viewBox="0 0 496.96 496.96" style="enable-background:new 0 0 512 512" xml:space="preserve" class=""><g>
<g>
	<path style="" d="M376.48,312.48c-17.648,0-32-14.352-32-32s14.352-32,32-32s32,14.352,32,32
		S394.128,312.48,376.48,312.48z" fill="#ffa64d" data-original="#ffa64d" class=""></path>
	<path style="" d="M448.48,416.48h-144v-48h144V416.48z" fill="#ffa64d" data-original="#ffa64d" class=""></path>
	<path style="" d="M120.48,312.48c-17.648,0-32-14.352-32-32s14.352-32,32-32s32,14.352,32,32
		S138.128,312.48,120.48,312.48z" fill="#ffa64d" data-original="#ffa64d" class=""></path>
	<path style="" d="M192.48,416.48h-144v-48h144V416.48z" fill="#ffa64d" data-original="#ffa64d" class=""></path>
</g>
<g>
	<path style="" d="M496.96,327.552L445.424,224.48H307.536L256,327.552l30.24,120.928h-21.76v48h224v-48h-21.76
		L496.96,327.552z M317.424,240.48h118.112l40,80H277.424L317.424,240.48z M472.48,480.48h-192v-16h136v-16H302.72l-28-112h203.512
		l-28,112H432.48v16h40V480.48z" fill="#333333" data-original="#333333" class=""></path>
	<path style="" d="M189.424,224.48H51.536L0,327.552L30.24,448.48H8.48v48h224v-48h-21.76l30.232-120.928
		L189.424,224.48z M216.48,480.48h-192v-16h192V480.48z M46.72,448.48l-28-112h165.76v-16H21.424l40-80h118.112l40,80H200.48v16
		h21.752l-28,112H46.72z" fill="#333333" data-original="#333333" class=""></path>
	<path style="" d="M280.48,169.776c2.856-8.552,9.96-14.712,18.488-16.616c1.92,4.184,4.472,8.16,7.92,11.6
		c7.8,7.8,18.04,11.696,28.288,11.696c7.48,0,14.928-2.128,21.456-6.288c13.336,8.992,31.856,14.312,51.456,14.312
		c40.376,0,72-21.088,72-48c0-17.296-13.096-32.144-33.144-40.576c38.648-30.064,54.48-53.96,48.272-72.864
		C490.512,8.704,473.584,0.48,448.76,0.48c-14.56,0-26.664,5.096-36.024,15.096c-12.024-2.312-40.368-5.952-56.792,6.864
		c-7.752,6.056-11.856,15.064-11.856,26.04c0,22.184,15.504,37.376,28.336,46.184c-5.808,2.176-11.088,4.928-15.792,8.12
		c-13.68-8.712-31.448-8.224-44.72,1.304l-6.216-1.552C295.568,100,288.48,90.936,288.48,80.48h-16
		c0,17.216,11.328,32.136,27.696,37.016c-3.392,6.272-5.072,13.184-4.872,20.136c-13.84,3.152-25.368,13.176-29.992,27.064
		l-0.416,1.232l15.168,5.096L280.48,169.776z M392.088,136.48c0,10.504-1.456,20.792-4.048,29.76
		c-7.36-1.656-14.056-4.2-19.664-7.504c9-13.424,9-31.104-0.008-44.52c5.616-3.296,12.336-5.816,19.672-7.48
		C390.632,115.696,392.088,125.976,392.088,136.48z M404.136,168.32c2.592-9.8,3.96-20.616,3.96-31.84
		c0-11.232-1.36-22.04-3.952-31.84c1.32-0.056,2.624-0.16,3.952-0.16c3.92,0,7.752,0.256,11.472,0.72
		c2.92,9.344,4.528,20,4.528,31.28c0,11.152-1.64,21.968-4.528,31.28c-3.728,0.464-7.56,0.72-11.48,0.72
		C406.752,168.48,405.456,168.376,404.136,168.32z M464.088,136.48c0,11.304-10.936,21.44-26.936,27.144
		c1.856-8.528,2.936-17.64,2.936-27.144c0-9.472-1.072-18.608-2.928-27.144C453.16,115.04,464.088,125.176,464.088,136.48z
		 M448.76,16.48c16.688,0,28.952,4.528,31.256,11.552c1.48,4.512,2.12,22.32-51.824,62l0.264,0.36
		c-6.424-1.224-13.232-1.912-20.328-1.912c-0.264-14.104,0.992-45.288,16.008-61.704C430.472,19.848,438.528,16.48,448.76,16.48z
		 M360.088,48.48c0-6.12,1.808-10.384,5.696-13.416c8.528-6.672,25-6.376,37.088-4.824c-9.688,19.688-10.96,44.184-10.776,57.448
		C383.68,83.6,360.088,70.192,360.088,48.48z M335.168,112.496c6.152,0,12.296,2.336,16.976,7.016
		c4.528,4.528,7.024,10.552,7.024,16.968s-2.488,12.44-7.024,16.968c-9.352,9.352-24.576,9.368-33.944,0
		c-4.528-4.528-7.024-10.552-7.024-16.968s2.488-12.44,7.024-16.968C322.88,114.832,329.024,112.496,335.168,112.496z" fill="#333333" data-original="#333333" class=""></path>
	<path style="" d="M54.952,152.88c9.616,0,20.552-0.776,32.776-2.312c-8.192,20.12-6.944,39.864,5.28,52.08
		c7.112,7.112,16.76,10.52,27.544,10.52c18.104,0,39.416-9.608,57.304-27.496c15.168-15.168,24.896-33.928,26.936-50.944
		c8.76-0.944,17.272-4.584,23.976-11.28c14.032-14.032,15.32-35.928,4.104-51.544l1.552-6.216
		c2.536-10.12,11.6-17.208,22.056-17.208v-16c-17.216,0-32.136,11.328-37.016,27.696c-6.272-3.392-13.184-5.072-20.136-4.872
		c-3.16-13.84-13.184-25.368-27.064-29.992l-1.232-0.416l-5.096,15.168l1.248,0.416c8.552,2.856,14.712,9.96,16.616,18.488
		c-4.184,1.92-8.16,4.472-11.6,7.92c-6.704,6.704-10.352,15.24-11.288,24.008c-6.984,0.888-14.216,3-21.384,6.232
		c2.872-15.312,3.152-37.12-12.592-52.864c-7.768-7.76-17.056-11.256-26.792-10.032C79.464,36.776,61.984,59.4,55.12,69.536
		c-13.424-0.208-25.192,4.672-35.248,14.816C2.424,101.968-3.64,119.8,3.216,133.256C9.896,146.376,26.944,152.888,54.952,152.88z
		 M104.312,191.336c-7.992-7.992-7.432-22.888-0.152-38.232c4.72,7.352,10.416,14.56,17.128,21.264
		c6.72,6.728,13.928,12.416,21.272,17.128C127.216,198.776,112.32,199.336,104.312,191.336z M157.92,181.976
		c-8.624-4.536-17.44-11.032-25.328-18.928c-7.984-7.984-14.376-16.664-18.912-25.32c2.304-2.952,4.832-5.848,7.6-8.616
		c0.944-0.944,1.936-1.792,2.912-2.68c5.096,8.752,11.776,17.36,19.712,25.312c7.936,7.944,16.56,14.624,25.32,19.72
		c-0.896,0.968-1.736,1.968-2.68,2.912C163.768,177.144,160.88,179.672,157.92,181.976z M183.512,78.2
		c4.528-4.528,10.552-7.024,16.968-7.024s12.44,2.488,16.968,7.024c9.36,9.36,9.36,24.584,0,33.944
		c-9.064,9.064-24.872,9.064-33.936,0C174.152,102.784,174.152,87.56,183.512,78.2z M188.912,133.264
		c-1,8.112-4.424,16.872-9.792,25.36c-8.192-4.496-16.344-10.64-23.904-18.192c-7.544-7.552-13.68-15.704-18.176-23.872
		c8.512-5.368,17.328-8.872,25.328-9.872c1.84,6.128,4.992,11.944,9.824,16.776C177.016,128.272,182.808,131.416,188.912,133.264z
		 M102.12,50.112c4.872-0.608,9.184,1.144,13.512,5.464c15.224,15.232,8.144,41.384,5.104,50.304
		c-9.256-9.584-27.456-26.112-48.168-33.088C80.008,63.176,91.424,51.416,102.12,50.112z M31.248,95.624
		c7.136-7.208,15.144-10.528,24.344-10.112c21.976,0.976,44.696,22.144,54.376,32.296c-4.952,4.952-9.232,10.184-12.888,15.52
		l-0.032-0.208c-65.352,10.056-77.432-2.912-79.584-7.128C14.096,119.384,19.504,107.464,31.248,95.624z" fill="#333333" data-original="#333333" class=""></path>
</g>
<g>
</g>
<g>
</g>
<g>
</g>
<g>
</g>
<g>
</g>
<g>
</g>
<g>
</g>
<g>
</g>
<g>
</g>
<g>
</g>
<g>
</g>
<g>
</g>
<g>
</g>
<g>
</g>
<g>
</g>
</g></svg>