<svg xmlns="http://www.w3.org/2000/svg" version="1.1" xmlns:xlink="http://www.w3.org/1999/xlink" xmlns:svgjs="http://svgjs.com/svgjs" width="512" height="512" x="0" y="0" viewBox="0 0 496 496" style="enable-background:new 0 0 512 512" xml:space="preserve"><g>
<path style="" d="M383.576,252.208L384,248l0,0c0-10.576-2.048-20.664-5.776-29.904l-0.016-0.024
	c-11.592,4.912-22.8,4.936-29.208-1.104c-7.584-7.152-6.208-20.632,2.208-33.56l-0.016-0.016C337.96,173.712,321.648,168,304,168
	H192c-44.184,0-80,35.816-80,80l0,0l0.424,4.208C102.664,257.688,96,268.016,96,280v16c0,5.944,1.624,11.512,4.448,16.28
	l0.096,0.056c1.176-0.152,2.352-0.336,3.576-0.336c14.064,0,25.472,10.744,25.472,24c0,4.272-1.192,8.288-3.272,11.768
	c10.16,0.616,22.368,6.232,32.68,15.952c16.576,15.624,21.952,35.88,12.008,45.256c-9.104,8.576-27.848,4.952-43.68-7.688L128,408
	c0,44.184,35.816,80,80,80h80c44.184,0,80-35.816,80-80l0,0l0.12-1.168C381.832,403.224,392,390.848,392,376v-16
	c0-11.984-6.664-22.312-16.424-27.792l0.536-5.376C389.832,323.224,400,310.848,400,296v-16
	C400,268.016,393.336,257.688,383.576,252.208z" fill="#ffa64d" data-original="#ffa64d"></path>
<g>
	<path style="" d="M448.968,149.8c0.368-1.912,0.624-3.84,0.624-5.8c0-10.64-5.512-20.008-13.888-25.832l12.416-17.552
		l-13.064-9.232l-14.864,21.008c-1.352-0.16-2.68-0.392-4.072-0.392s-2.712,0.232-4.064,0.392l-14.872-21.016l-13.064,9.248
		l12.416,17.544c-8.376,5.824-13.888,15.192-13.888,25.832c0,1.936,0.248,3.848,0.608,5.736c-9.368,2.656-19.104,8.024-27.744,16.16
		c-2.264,2.128-4.296,4.384-6.208,6.68C335.664,164.344,320.16,160,304,160h-32V94.024L471.4,59.04
		c14.256-2.512,24.6-14.832,24.6-29.296C496,13.344,482.656,0,465.888,0c-1.72,0-3.448,0.152-5.136,0.448L24.6,76.96
		C10.344,79.472,0,91.792,0,106.256C0,122.656,13.344,136,30.112,136c1.72,0,3.448-0.152,5.144-0.448L224,102.44V160h-32
		c-48.52,0-88,39.48-88,88h0.248C94.448,255.296,88,266.872,88,280v7.36l-2.824-3.984l-13.064,9.248l12.416,17.544
		c-8.368,5.824-13.88,15.192-13.88,25.832c0,1.936,0.248,3.848,0.608,5.736c-9.368,2.656-19.104,8.016-27.744,16.16
		C31.296,369.408,24,383.744,24,396.24c0,7.512,2.592,13.92,7.504,18.544c4.888,4.616,11.536,6.832,18.984,6.832
		c8.464,0,17.936-2.92,27.04-8.36C83.728,424.96,93.376,432,104.12,432c6.44,0,12.44-2.52,17.568-6.976
		C129.64,465.424,165.304,496,208,496h80c46.92,0,85.272-36.944,87.76-83.264C389.992,406.608,400,392.456,400,376v-16
		c0-11.52-4.968-21.832-12.784-29.136C399.544,324.032,408,311.056,408,296v-16c0-13.128-6.448-24.704-16.248-32H392
		c0-8.848-1.344-17.504-3.904-25.864c0.48-0.272,0.96-0.592,1.44-0.88C395.728,232.96,405.376,240,416.12,240
		c10.792,0,20.368-6.976,26.552-18.624c9.048,5.368,18.44,8.24,26.84,8.24c7.448,0,14.096-2.208,18.984-6.832
		c4.912-4.616,7.504-11.032,7.504-18.544c0-12.496-7.296-26.832-19.52-38.344C467.92,157.824,458.264,152.48,448.968,149.8z
		 M433.584,144c0,1.416-0.216,2.792-0.6,4.12c-5.992,0.608-11.4,2.6-15.496,6.456c-0.568,0.528-0.992,1.168-1.488,1.744
		c-0.504-0.576-0.928-1.216-1.496-1.744c-4.04-3.808-9.352-5.792-15.248-6.432c-0.392-1.336-0.608-2.72-0.608-4.144
		c0-8.824,7.832-16,17.464-16C425.752,128,433.584,135.176,433.584,144z M395.576,163.712c3.408,0,6.184,0.832,7.96,2.504
		c1.64,1.552,2.48,3.88,2.48,6.912c0,8.056-5.552,18.28-14.488,26.704c-14.04,13.232-31.144,16.88-37.056,11.312
		c-1.64-1.552-2.472-3.872-2.472-6.904c0-6.312,3.808-16.64,14.48-26.704C376.312,168.28,387.64,163.712,395.576,163.712z
		 M32.48,119.8c-0.784,0.128-1.576,0.2-2.736,0.2C22.168,120,16,113.832,16,106.256c0-6.688,4.784-12.376,11.368-13.528L463.52,16.2
		c0.784-0.128,1.576-0.2,2.736-0.2C473.832,16,480,22.168,480,29.744c0,6.688-4.784,12.376-11.368,13.528L32.48,119.8z M240,99.632
		l16-2.808V160h-16V99.632z M128.472,391.832c-8.928-8.424-14.488-18.648-14.488-26.704c0-3.032,0.832-5.36,2.48-6.912
		c1.776-1.672,4.552-2.504,7.96-2.504c7.936,0,19.264,4.568,29.096,13.832C164.192,379.6,168,389.928,168,396.24
		c0,3.032-0.832,5.352-2.48,6.904C159.6,408.72,142.52,405.072,128.472,391.832z M120.984,340.12
		c-5.992,0.608-11.4,2.6-15.496,6.456c-0.568,0.528-0.992,1.168-1.488,1.744c-0.504-0.576-0.928-1.216-1.496-1.744
		c-4.04-3.808-9.36-5.792-15.248-6.432c-0.392-1.336-0.608-2.72-0.608-4.144c0-8.824,7.832-16,17.464-16s17.472,7.176,17.472,16
		C121.584,337.416,121.368,338.792,120.984,340.12z M42.48,403.152c-1.648-1.56-2.48-3.88-2.48-6.912
		c0-6.312,3.808-16.64,14.48-26.704c9.832-9.256,21.16-13.832,29.096-13.832c3.408,0,6.184,0.832,7.96,2.504
		c1.64,1.552,2.48,3.88,2.48,6.912c0,8.056-5.552,18.28-14.488,26.704C65.48,405.072,48.392,408.72,42.48,403.152z M104.12,416
		c-5.128,0-10.264-4.8-13.64-12.504c0.008-0.008,0.016-0.016,0.024-0.016c5.648-5.32,10.192-11.256,13.504-17.328
		c3.312,6.072,7.848,12,13.504,17.328c0.056,0.048,0.112,0.096,0.16,0.144C114.296,411.16,109.184,416,104.12,416z M384,376
		c0,13.232-10.768,24-24,24H216v16h143.528C355.536,451.944,325,480,288,480h-80c-36.816,0-67.224-27.792-71.448-63.488
		c7.168,3.336,14.368,5.104,20.96,5.104c6.696,0,12.672-1.896,17.384-5.616H200v-16h-16.336c0.16-1.232,0.336-2.456,0.336-3.76
		c0-12.496-7.296-26.832-19.52-38.344c-8.568-8.08-18.224-13.424-27.52-16.104c0.368-1.912,0.616-3.84,0.616-5.8H360
		c13.232,0,24,10.768,24,24V376z M375.632,240.768c-2.48-0.48-5.016-0.768-7.632-0.768h-16v16h16c13.232,0,24,10.768,24,24v16
		c0,13.232-10.768,24-24,24h-8H136h-3.072c-2.352-3.856-5.464-7.216-9.232-9.832l12.416-17.552l-13.064-9.232l-14.864,21.008
		c-0.856-0.104-1.704-0.208-2.584-0.248c-0.936-2.616-1.6-5.328-1.6-8.144v-16c0-13.232,10.768-24,24-24h208v-16H128
		c-2.616,0-5.16,0.288-7.632,0.768C124,204.448,154.736,176,192,176h32h48h32c13.04,0,25.472,3.624,36.512,10.168
		C337.624,192.28,336,198.456,336,204.24c0,7.512,2.592,13.92,7.504,18.544c4.888,4.616,11.536,6.832,18.984,6.832
		c3.432,0,7.04-0.512,10.72-1.432C374.392,232.296,375.2,236.496,375.632,240.768z M416.12,224c-5.128,0-10.264-4.8-13.64-12.504
		c0.008-0.008,0.016-0.016,0.024-0.016c5.648-5.32,10.192-11.256,13.504-17.328c3.312,6.072,7.848,12,13.504,17.328
		c0.056,0.048,0.112,0.096,0.16,0.144C426.296,219.16,421.184,224,416.12,224z M477.52,211.152
		c-5.928,5.568-23.008,1.92-37.056-11.312c-8.928-8.424-14.488-18.648-14.488-26.704c0-3.032,0.832-5.36,2.48-6.912
		c1.776-1.672,4.552-2.504,7.96-2.504c7.936,0,19.264,4.568,29.096,13.832C476.192,187.6,480,197.928,480,204.24
		C480,207.272,479.168,209.592,477.52,211.152z" fill="#333333" data-original="#333333"></path>
	<rect x="296" y="192" style="" width="16" height="16" fill="#333333" data-original="#333333"></rect>
	<rect x="176" y="208" style="" width="16" height="16" fill="#333333" data-original="#333333"></rect>
	<rect x="256" y="368" style="" width="16" height="16" fill="#333333" data-original="#333333"></rect>
	<rect x="312" y="432" style="" width="16" height="16" fill="#333333" data-original="#333333"></rect>
</g>
<g>
</g>
<g>
</g>
<g>
</g>
<g>
</g>
<g>
</g>
<g>
</g>
<g>
</g>
<g>
</g>
<g>
</g>
<g>
</g>
<g>
</g>
<g>
</g>
<g>
</g>
<g>
</g>
<g>
</g>
</g></svg>