<svg xmlns="http://www.w3.org/2000/svg" version="1.1" xmlns:xlink="http://www.w3.org/1999/xlink" xmlns:svgjs="http://svgjs.com/svgjs" width="512" height="512" x="0" y="0" viewBox="0 0 62 62" style="enable-background:new 0 0 512 512" xml:space="preserve" class=""><g><g><g><path d="m46.769 25.025c-1.421-1.894-3.683-3.025-6.051-3.025-2.02 0-3.919.786-5.348 2.215l-.37.371-.371-.371c-1.428-1.429-3.328-2.215-5.347-2.215-2.368 0-4.63 1.131-6.05 3.025-.795 1.059-1.232 2.371-1.232 3.694v.36c0 2.154.949 4.181 2.604 5.56l1.056.88c.554-.329 1.185-.519 1.84-.519.96 0 1.882.382 2.561 1.061.601.601.939 1.417.939 2.267v.093c0 .459-.102.904-.275 1.318l4.275 3.563 10.396-8.663c1.655-1.379 2.604-3.406 2.604-5.56v-.36c0-1.323-.438-2.635-1.231-3.694z" fill="#ffa64d" data-original="#f0bc5e"></path></g><g><path d="m62 53c0-2.414-1.721-4.434-4-4.899v-1.101c0-1.654-1.346-3-3-3-.771 0-1.468.301-2 .78-.239-.216-.507-.399-.806-.53 2.49-3.968 3.806-8.512 3.806-13.25 0-5.288-1.634-10.297-4.698-14.558.435-.608.698-1.346.698-2.149 0-1.819-1.303-3.356-3.097-3.656l-2.903-.484v-2.85l1.445-2.168c.363-.544.555-1.178.555-1.832 0-1.822-1.481-3.303-3.303-3.303h-27.394c-1.822 0-3.303 1.481-3.303 3.303 0 .654.192 1.288.555 1.832l1.445 2.168v2.85l-2.903.484c-1.794.3-3.097 1.837-3.097 3.656 0 .803.263 1.542.698 2.149-3.065 4.261-4.698 9.27-4.698 14.558 0 7.372 3.225 14.276 8.753 19h-12.753c-1.103 0-2 .897-2 2v2c0 1.103.897 2 2 2h38.184c.414 1.161 1.514 2 2.816 2h1v1c0 1.654 1.346 3 3 3 .771 0 1.468-.301 2-.78.532.48 1.229.78 2 .78s1.468-.301 2-.78c.532.48 1.229.78 2 .78 1.654 0 3-1.346 3-3v-1.101c2.279-.465 4-2.485 4-4.899zm-44.697-51h27.395c.718 0 1.302.584 1.302 1.303 0 .258-.076.508-.219.723l-1.316 1.974h-26.93l-1.316-1.975c-.143-.214-.219-.464-.219-.722 0-.719.584-1.303 1.303-1.303zm26.697 6v2h-26v-2zm-30.574 4.609 3.657-.609h27.835l3.656.609c.826.138 1.426.846 1.426 1.684 0 .941-.766 1.707-1.707 1.707h-.172c-.456 0-.884-.178-1.207-.5l-1.914-1.914-.939.939c-.952.952-2.216 1.475-3.561 1.475s-2.609-.523-3.561-1.475l-.939-.939-.707.707c-1.101 1.101-2.565 1.707-4.122 1.707h-.343c-1.557 0-3.021-.606-4.122-1.707l-.706-.707-.939.939c-.952.952-2.216 1.475-3.561 1.475s-2.609-.523-3.561-1.475l-.939-.939-1.914 1.914c-.323.322-.751.5-1.207.5h-.172c-.941 0-1.707-.766-1.707-1.707 0-.838.6-1.546 1.426-1.684zm-5.426 18.391c0-4.826 1.479-9.398 4.255-13.298.446.191.937.298 1.452.298h.172c.99 0 1.921-.386 2.621-1.086l.522-.522c1.258 1.042 2.824 1.608 4.478 1.608 1.674 0 3.258-.58 4.524-1.646 1.368 1.067 3.042 1.646 4.805 1.646h.343c1.763 0 3.437-.579 4.805-1.646 1.265 1.066 2.849 1.646 4.523 1.646 1.654 0 3.22-.566 4.478-1.608l.522.522c.7.7 1.631 1.086 2.621 1.086h.172c.515 0 1.006-.107 1.452-.298 2.776 3.9 4.255 8.472 4.255 13.298 0 4.794-1.464 9.372-4.22 13.265-.288.129-.548.306-.78.515-.532-.48-1.229-.78-2-.78-1.654 0-3 1.346-3 3v1h-1c-1.302 0-2.402.839-2.816 2h-22.136c-6.294-4.299-10.048-11.375-10.048-19zm-6 21h38v2h-38zm41 4c-.551 0-1-.448-1-1v-4c0-.552.449-1 1-1h1v6zm4 4c-.551 0-1-.448-1-1v-12c0-.552.449-1 1-1s1 .448 1 1v12c0 .552-.449 1-1 1zm4 0c-.551 0-1-.448-1-1v-12c0-.552.449-1 1-1s1 .448 1 1v12c0 .552-.449 1-1 1zm5-1c0 .552-.449 1-1 1s-1-.448-1-1v-12c0-.552.449-1 1-1s1 .448 1 1zm2-3.184v-5.631c1.161.414 2 1.514 2 2.816s-.839 2.401-2 2.815z" fill="#333333" data-original="#000000" class=""></path><path d="m27.5 34c-1.234 0-2.394.48-3.268 1.354l-.232.232-.232-.232c-.874-.874-2.034-1.354-3.268-1.354s-2.394.48-3.268 1.354c-.795.794-1.232 1.85-1.232 3.068 0 1.295.564 2.521 1.547 3.364l6.453 5.531 6.453-5.531c.983-.844 1.547-2.069 1.547-3.458 0-1.124-.438-2.18-1.232-2.975-.874-.873-2.034-1.353-3.268-1.353zm1.651 6.269-5.151 4.414-5.15-4.414c-.54-.463-.85-1.137-.85-1.94 0-.589.229-1.144.646-1.561.496-.496 1.154-.768 1.854-.768s1.358.272 1.854.768l1.646 1.646 1.646-1.646c.991-.99 2.716-.99 3.707 0 .418.417.647.971.647 1.654 0 .71-.31 1.384-.849 1.847z" fill="#333333" data-original="#000000" class=""></path></g></g></g></svg>