<svg xmlns="http://www.w3.org/2000/svg" version="1.1" xmlns:xlink="http://www.w3.org/1999/xlink" xmlns:svgjs="http://svgjs.com/svgjs" width="512" height="512" x="0" y="0" viewBox="0 0 497.328 497.328" style="enable-background:new 0 0 512 512" xml:space="preserve"><g>
<g>
	<polygon style="" points="53.552,141.6 67.272,149.832 79.976,128.664 119.208,128.664 119.208,112.664 
		70.912,112.664 	" fill="#333333" data-original="#333333"></polygon>
	
		<rect x="43.205" y="154.589" transform="matrix(-0.5146 0.8574 -0.8574 -0.5146 215.5816 203.1362)" style="" width="14.176" height="16" fill="#333333" data-original="#333333"></rect>
	<path style="" d="M397.856,80.664h-80l-48-80H180.8l-48,80h-80l-52.8,88l48,80l-48,80l52.8,88h80l48,80h89.064
		l18.328-30.544l-13.72-8.232L260.8,480.664h-70.936l-43.2-72l43.2-72h51.464v-16h-51.472l-43.2-72l43.2-72H260.8l26.456,44.096
		l13.72-8.232l-26.32-43.864l43.2-72h70.936l43.2,72l-16.736,27.88l13.72,8.232l21.68-36.112L397.856,80.664z M176,328.664l-43.2,72
		H61.856l-43.2-72l43.2-72H132.8L176,328.664z M132.8,240.664H61.856l-43.2-72l43.2-72h70.936l43.2,72L132.8,240.664z
		 M260.8,160.664h-70.944l-43.2-72l43.2-72h70.936l43.2,72L260.8,160.664z" fill="#333333" data-original="#333333"></path>
	<polygon style="" points="181.504,404.544 167.792,412.784 198.912,464.664 247.208,464.664 247.208,448.664 
		207.976,448.664 	" fill="#333333" data-original="#333333"></polygon>
</g>
<path style="" d="M361.544,496.664h-0.44c-74.864,0-135.776-60.912-135.776-135.784c0-22.4,5.608-44.656,16.224-64.376
	l89.144-165.544c6.088-11.288,17.816-18.296,30.632-18.296s24.544,7.008,30.624,18.288l89.152,165.552
	c10.616,19.72,16.224,41.984,16.224,64.376C497.328,435.752,436.416,496.664,361.544,496.664z" fill="#ffa64d" data-original="#ffa64d"></path>
<g>
	
		<rect x="338.149" y="176.662" transform="matrix(-0.4736 0.8808 -0.8808 -0.4736 674.3158 -33.7132)" style="" width="18.169" height="16.001" fill="#333333" data-original="#333333"></rect>
	
		<rect x="253.947" y="248.7" transform="matrix(-0.4736 0.8808 -0.8808 -0.4736 680.6376 106.5844)" style="" width="109.038" height="16.001" fill="#333333" data-original="#333333"></rect>
	<path style="" d="M448.056,346.032c-0.856-4.984-2.152-9.912-3.84-14.648l15.08-5.376
		c1.992,5.6,3.52,11.424,4.528,17.304L448.056,346.032z" fill="#333333" data-original="#333333"></path>
	<path style="" d="M387.312,461.424l-3.968-15.504c38.848-9.96,65.984-44.928,65.984-85.04h16
		C465.328,408.304,433.248,449.648,387.312,461.424z" fill="#333333" data-original="#333333"></path>
</g>
<g>
</g>
<g>
</g>
<g>
</g>
<g>
</g>
<g>
</g>
<g>
</g>
<g>
</g>
<g>
</g>
<g>
</g>
<g>
</g>
<g>
</g>
<g>
</g>
<g>
</g>
<g>
</g>
<g>
</g>
</g></svg>