<svg xmlns="http://www.w3.org/2000/svg" version="1.1" xmlns:xlink="http://www.w3.org/1999/xlink" xmlns:svgjs="http://svgjs.com/svgjs" width="512" height="512" x="0" y="0" viewBox="0 0 496 496.944" style="enable-background:new 0 0 512 512" xml:space="preserve" class=""><g><path d="m296.007812 391.535156c6.839844-6.839844 14.566407-11.457031 21.855469-13.773437-3.398437-5.082031-5.390625-11.1875-5.390625-17.761719 0-9.457031 4.183594-17.871094 10.703125-23.726562-.910156-.066407-1.777343-.273438-2.703125-.273438h-199.128906c14.800781 15.089844 19.566406 34.433594 10.566406 43.433594-5.988281 5.992187-16.574218 5.789062-27.429687.695312v3.871094c0 11.710938-4.023438 22.785156-10.945313 31.703125.984375.074219 1.929688.296875 2.9375.296875h184.917969c1.945313-8.007812 6.96875-16.808594 14.617187-24.464844zm0 0" fill="#ffa64d" data-original="#f0bc5e" class=""></path><path d="m496.472656 72v-56h-24c-19.617187 0-36.878906 10.160156-46.886718 25.472656-11.515626-24.457031-36.328126-41.472656-65.113282-41.472656h-24v56c0 14.792969 4.496094 28.550781 12.175782 40h-109.0625c10.40625-10.175781 16.886718-24.335938 16.886718-40v-56h-24c-30.871094 0-56 25.121094-56 56v40c-56.5625 0-102.898437-8.832031-165.265625-31.519531l-10.734375-3.90625v83.425781h120.535156c-24.34375 15.3125-42.03125 40.464844-47.097656 70.671875l15.785156 2.648437c7.121094-42.488281 43.617188-73.320312 86.777344-73.320312h64c43.160156 0 79.65625 30.832031 86.785156 73.328125l15.78125-2.648437c-5.070312-30.214844-22.75-55.367188-47.09375-70.671876h96.527344v24c0 39.695313 32.296875 72 72 72h24v-56c0-24.289062-12.121094-45.761718-30.59375-58.808593 22.378906-7.34375 38.59375-28.398438 38.59375-53.199219zm-144-56h8c30.871094 0 56 25.121094 56 56v40h-8c-30.871094 0-56-25.121094-56-56zm-160 40c0-22.054688 17.941406-40 40-40h8v40c0 22.054688-17.945312 40-40 40h-8zm48 72h-224v-44.664062c58.984375 20.550781 104.71875 28.664062 160 28.664062h186.847656c8.375 6.769531 18.304688 11.671875 29.152344 14.144531v1.855469zm232 56v40h-8c-30.871094 0-56-25.121094-56-56v-40h8c30.871094 0 56 25.121094 56 56zm-32-72h-8v-40c0-22.054688 17.941406-40 40-40h8v40c0 22.054688-17.945312 40-40 40zm0 0" fill="#333333" data-original="#000000" class=""></path><path d="m320.472656 208h-224c-22.089844 0-40 17.910156-40 40 0 9.449219 3.40625 18.015625 8.886719 24.855469 2.296875-.519531 4.65625-.855469 7.113281-.855469 11.816406 0 22.015625 6.472656 27.558594 16h220.441406c22.085938 0 40-17.910156 40-40s-17.914062-40-40-40zm0 0" fill="#ffa64d" data-original="#f0bc5e" class=""></path><path d="m398.59375 385.878906c-5.21875-5.214844-10.882812-9.214844-16.609375-12.183594 1.589844-4.367187 2.488281-8.992187 2.488281-13.695312 0-12.222656-5.632812-23.046875-14.296875-30.390625l11.953125-11.953125-11.3125-11.3125-10.671875 10.671875c.207031-1.65625.328125-3.335937.328125-5.015625 0-22.054688-17.945312-40-40-40h-220.6875l10.34375-10.34375-11.3125-11.3125-15.375 15.375c-3.511718-1.007812-7.136718-1.71875-10.96875-1.71875-3.832031 0-7.457031.710938-10.96875 1.71875l-15.375-15.375-11.3125 11.3125 11.953125 11.953125c-8.664062 7.34375-14.296875 18.167969-14.296875 30.390625 0 4.703125.894532 9.320312 2.488282 13.695312-5.730469 2.96875-11.394532 6.976563-16.609376 12.191407-18.550781 18.554687-23.375 42.800781-10.976562 55.210937 4.527344 4.527344 10.863281 6.886719 18.097656 6.886719 2.398438 0 4.925782-.328125 7.496094-.855469 2.34375 19.863282 14.328125 37.230469 32.550781 46.351563l6.953125 3.464843 6.953125-3.480468c4.503907-2.25 8.558594-5.082032 12.253907-8.25 9.136718 29.664062 36.792968 50.785156 68.792968 50.785156h96c19.359375 0 37.710938-7.886719 51.070313-21.3125 4.871093 14.898438 15.402343 27.496094 29.976562 34.785156l6.953125 3.472656 6.953125-3.480468c18.230469-9.113282 30.207031-26.480469 32.550781-46.351563 2.566407.527344 5.085938.855469 7.496094.855469 7.222656 0 13.558594-2.359375 18.09375-6.890625 12.402344-12.398437 7.578125-36.644531-10.972656-55.199219zm-54.121094-11.789062c-5.71875-5.058594-13.59375-6.792969-22.207031-5.523438-1.058594-2.734375-1.792969-5.589844-1.792969-8.566406 0-13.230469 10.765625-24 24-24 13.230469 0 24 10.769531 24 24 0 2.976562-.738281 5.839844-1.792968 8.585938-8.625-1.273438-16.488282.453124-22.207032 5.503906zm-41.695312 57.191406c-5.378906 1.34375-9.792969.789062-12.089844-1.503906-5.101562-5.105469-1.488281-20.121094 10.976562-32.585938 8.832032-8.832031 18.929688-13.207031 25.886719-13.207031 2.863281 0 5.203125.742187 6.695313 2.230469 5.097656 5.105468 1.488281 20.128906-10.972656 32.585937-6.226563 6.230469-13.6875 10.773438-20.496094 12.480469zm41.695312-119.28125c0 2.824219-.664062 5.542969-1.625 8.160156-3.238281.136719-6.34375.695313-9.34375 1.558594l-15.375-15.375-11.3125 11.3125 11.953125 11.953125c-2.257812 1.910156-4.304687 4.03125-6.097656 6.390625h-72.40625c5.078125-6.703125 8.207031-14.960938 8.207031-24s-3.128906-17.296875-8.207031-24h80.207031c13.230469 0 24 10.769531 24 24zm-217.878906 17.878906c-5.21875-5.214844-10.882812-9.214844-16.609375-12.183594 1.589844-4.367187 2.488281-8.992187 2.488281-13.695312 0-5.695312-1.234375-11.089844-3.394531-16h67.59375c-5.070313 6.703125-8.199219 14.960938-8.199219 24s3.128906 17.296875 8.207032 24h-44.71875c-1.664063-2.078125-3.402344-4.144531-5.367188-6.121094zm-32.929688 32.929688c-12.464843-12.464844-16.070312-27.488282-10.976562-32.585938 1.496094-1.488281 3.832031-2.230468 6.695312-2.230468 6.960938 0 17.074219 4.382812 25.890626 13.207031 12.460937 12.464843 16.078124 27.480469 10.972656 32.585937-2.292969 2.292969-6.710938 2.847656-12.085938 1.503906-6.800781-1.714843-14.265625-6.257812-20.496094-12.480468zm90.808594-50.808594c0-13.230469 10.765625-24 24-24 13.230469 0 24 10.769531 24 24s-10.769531 24-24 24c-13.234375 0-24-10.769531-24-24zm-136-8c0-13.230469 10.765625-24 24-24 13.230469 0 24 10.769531 24 24 0 2.976562-.738281 5.839844-1.792968 8.585938-8.625-1.265626-16.488282.460937-22.207032 5.511718-5.71875-5.058594-13.59375-6.792968-22.214844-5.523437-1.050781-2.742188-1.785156-5.597657-1.785156-8.574219zm-29.785156 69.777344c-5.101562-5.105469-1.488281-20.121094 10.976562-32.585938 8.832032-8.832031 18.929688-13.207031 25.886719-13.207031 2.863281 0 5.203125.742187 6.695313 2.230469 5.097656 5.105468 1.488281 20.128906-10.972656 32.585937-6.226563 6.222657-13.699219 10.773438-20.496094 12.472657-5.386719 1.351562-9.800782.796874-12.089844-1.496094zm53.785156 49.277344c-14.519531-7.34375-23.578125-21.863282-23.9375-38.078126 4.9375-2.878906 9.710938-6.519531 14.050782-10.863281 3.980468-3.984375 7.199218-8.25 9.878906-12.585937 2.679687 4.335937 5.894531 8.609375 9.878906 12.585937 4.335938 4.335938 9.113281 7.984375 14.046875 10.863281-.34375 16.214844-9.398437 30.734376-23.917969 38.078126zm88 40.945312c-28.191406 0-52.089844-21.0625-55.570312-48.992188l-1.148438.144532c4.40625-7.214844 7.207032-15.390625 8.222656-24.03125 2.566407.527344 5.085938.855468 7.496094.855468 7.222656 0 13.558594-2.359374 18.09375-6.886718 7.792969-7.800782 8.761719-20.289063 3.808594-33.089844h163.90625c-.527344 2.585938-.808594 5.265625-.808594 8 0 4.703125.894532 9.320312 2.488282 13.695312-5.730469 2.96875-11.394532 6.976563-16.609376 12.191407-18.550781 18.554687-23.375 42.800781-10.976562 55.210937 4.167969 4.167969 9.90625 6.398438 16.410156 6.75-10.359375 10.175782-24.457031 16.152344-39.3125 16.152344zm184 15.054688c-14.519531-7.34375-23.578125-21.863282-23.9375-38.078126 4.9375-2.878906 9.710938-6.519531 14.050782-10.863281 3.980468-3.984375 7.199218-8.25 9.878906-12.585937 2.679687 4.335937 5.894531 8.609375 9.878906 12.585937 4.335938 4.335938 9.113281 7.984375 14.046875 10.863281-.34375 16.214844-9.398437 30.734376-23.917969 38.078126zm53.785156-49.277344c-2.296874 2.292968-6.707031 2.847656-12.089843 1.503906-6.808594-1.695312-14.273438-6.25-20.496094-12.472656-12.464844-12.464844-16.070313-27.488282-10.976563-32.585938 1.496094-1.488281 3.832032-2.230468 6.695313-2.230468 6.960937 0 17.074219 4.382812 25.890625 13.207031 12.453125 12.457031 16.070312 27.472656 10.976562 32.578125zm0 0" fill="#333333" data-original="#000000" class=""></path></g></svg>