<svg xmlns="http://www.w3.org/2000/svg" version="1.1" xmlns:xlink="http://www.w3.org/1999/xlink" xmlns:svgjs="http://svgjs.com/svgjs" width="512" height="512" x="0" y="0" viewBox="0 0 62.133 62.516" style="enable-background:new 0 0 512 512" xml:space="preserve" class=""><g><g><g><path d="m40.159 32.215-12.326 15.409 1.167 3.892-1.2.2.488 1.952c2.394 1.984 5.065 3.64 7.938 4.916l15.032-18.79c-3.147-3.217-6.912-5.806-11.099-7.579z" fill="#ffa64d" data-original="#f0bc5e"></path></g><g><path d="m17 33.213h2v3.606h-2z" transform="matrix(.832 -.555 .555 .832 -16.4 15.866)" fill="#333333" data-original="#000000" class=""></path><path d="m20.5 31.434h2v3.162h-2z" transform="matrix(.316 -.949 .949 .316 -16.62 42.972)" fill="#333333" data-original="#000000" class=""></path><path d="m62.133 62.516-.403-3.229c-1.468-11.737-8.583-21.711-18.932-26.951 10.811-1.362 19.202-10.608 19.202-21.783 0-2.806-.528-5.551-1.57-8.157l-.959-2.396-12.001 8c-.601-2.382-1.702-4.624-3.242-6.55l-1.146-1.432-23.008 23.009c-1-.31-2.042-.481-3.092-.503-.722-.958-1.765-1.66-2.982-1.908v-9.629c0-3.14-1.744-5.962-4.553-7.367l-.894 1.79c2.126 1.063 3.447 3.2 3.447 5.578v9.587c-.695.077-1.362.24-2 .466v-7.525c0-2.757-2.243-5-5-5s-5 2.243-5 5v1h2v-1c0-1.654 1.346-3 3-3s3 1.346 3 3v8.522c-2.41 1.617-4 4.365-4 7.478v2c0 .462.113.894.3 1.285l-2.008 2.008 1.414 1.414 2.007-2.008c.393.187.825.301 1.287.301h2c.403 0 .798-.036 1.187-.088.207 1.131.601 2.219 1.156 3.227-.401.417-.709.932-.886 1.52l-2.731 9.106 1.954.391-1.875 7.5 1.284.428-1.018 2.545 1.857.743 1.062-2.654 1.471.49 2.539-4.443v5.515l2-.5v2.219h2v-2.719l2-.5v-6.909l1.39 3.243 1.086-.181 1.914 5.324 1.478-.493 1.184 3.552 1.896-.633-1.184-3.551 1.43-.477-.247-.988c5.872 4.099 12.91 6.333 20.115 6.333zm-19.22-59.499c1.378 1.819 2.326 3.935 2.779 6.169l-22.769 15.179c-.277-.181-.56-.352-.851-.508zm-26.913 22.499c0 2.757-2.243 5-5 5-1.654 0-3-1.346-3-3 0-2.757 2.243-5 5-5 1.654 0 3 1.345 3 3zm-9 7c-.552 0-1-.449-1-1v-2c0-.369.037-.729.093-1.083.377 2.022 1.969 3.614 3.991 3.991-.355.054-.715.092-1.084.092zm10.964-6.285c.024-.235.036-.474.036-.715 0-.315-.037-.621-.093-.92 1.107.141 2.187.476 3.174.997l-1.636 1.091 1.109 1.664 37.975-25.317.043.107c.948 2.369 1.428 4.864 1.428 7.415 0 11.008-8.955 19.963-19.963 19.963-.502 0-1.005-.026-1.508-.037 1.155-1.249 2.143-2.629 2.949-4.105l8.621-.862-.199-1.99-7.417.742c.222-.545.414-1.102.589-1.665l14.375-7.187-.895-1.789-12.859 6.43c.156-.896.247-1.808.283-2.727l4.568-2.969-1.09-1.677-20 13 1.09 1.677 13.324-8.661c-.528 4.474-2.686 8.619-6.101 11.676-3.181-.195-6.353-.591-9.472-1.214l-3.1-.62-.393 1.961 3.1.62c.708.141 1.422.252 2.134.372l-2.394 1.795 1.696 2.545-4.338.865v3.852c-.816.061-1.569.338-2.197.791-.472-1.519-1.815-2.642-3.45-2.788-.629-1.236-1.902-2.036-3.321-2.036-.334 0-.654.054-.964.136-.46-.846-.775-1.761-.934-2.71 3.206-1.196 5.549-4.164 5.83-7.71zm-5.59 13.519c.222-.738.888-1.234 1.658-1.234.439 0 .836.179 1.146.459-1.287.665-2.178 1.994-2.178 3.541v4.78l-2.727-.545zm-.836 15.558-1.344-.448 1.449-5.796 1.357.271v1.18h1.277zm7.462.427-2 .5v-5.719h2zm0-7.219h-4v-6c0-1.103.897-2 2-2s2 .897 2 2zm2.187-2.769c-.125-.289-.187-.596-.187-.913 0-1.279 1.04-2.319 2.318-2.319 1.159 0 2.161.746 2.494 1.855l1.903 6.345-4.105.685zm5.867 7.107.752 3.006-1.195.398-1.129-3.142zm1.978-.33 1.252-.209-2.556-8.519c-.419-1.395-1.44-2.453-2.729-2.955v-2.506l5.66-1.132-2.304-3.455 2.462-1.846c2.411.311 4.836.499 7.263.565 11.807 4.247 20.105 14.61 21.664 27.068l.122.98h-9.805c-7.599 0-15.003-2.636-20.888-7.421z" fill="#333333" data-original="#000000" class=""></path></g></g></g></svg>