<svg xmlns="http://www.w3.org/2000/svg" version="1.1" xmlns:xlink="http://www.w3.org/1999/xlink" xmlns:svgjs="http://svgjs.com/svgjs" width="512" height="512" x="0" y="0" viewBox="0 0 496 496" style="enable-background:new 0 0 512 512" xml:space="preserve" class=""><g><path d="m448 256h-144c-8.824219 0-16 7.175781-16 16v160c0 8.824219 7.175781 16 16 16h144c8.824219 0 16-7.175781 16-16v-160c0-8.824219-7.175781-16-16-16zm0 0" fill="#ffa64d" data-original="#f0bc5e" class=""></path><path d="m150.726562 415.273438c-20.429687-3.746094-39.726562-7.273438-62.726562-7.273438-40.703125 0-70.160156 10.984375-80 15.214844v.785156c0 35.34375 28.65625 64 64 64h96c35.34375 0 64-28.65625 64-64-33.566406 0-57.824219-4.441406-81.273438-8.726562zm0 0" fill="#ffa64d" data-original="#f0bc5e" class=""></path><path d="m432 307.71875-32-21.335938-24 16-24-16-32 21.335938v12.28125h16v-3.71875l16-10.664062 16 10.664062v23.4375l-16 10.664062-16-10.664062v-3.71875h-16v12.28125l24 16v32l32 21.335938 32-21.335938v-32l24-16zm-56 90.664062-16-10.664062v-23.429688l16-10.664062 16 10.664062v23.429688zm40-58.664062-16 10.664062-16-10.664062v-23.4375l16-10.664062 16 10.664062zm0 0" fill="#333333" data-original="#000000" class=""></path><path d="m123.785156 165.664062c-7.714844-15.40625-11.785156-32.65625-11.785156-49.886718v-19.777344h-48v19.777344c0 17.230468-4.070312 34.488281-11.785156 49.894531-2.75 5.519531-4.214844 11.710937-4.214844 18.328125 0 22.054688 17.945312 40 40 40s40-17.945312 40-40.449219c0-6.167969-1.464844-12.359375-4.214844-17.886719zm0 0" fill="#ffa64d" data-original="#f0bc5e" class=""></path><path d="m480 216.207031v-24.207031c0-8.824219-7.175781-16-16-16h-1.921875l-8.894531-32h-154.367188l-8.894531 32h-1.921875c-8.824219 0-16 7.175781-16 16v24.207031c-9.65625 7.3125-16 18.785157-16 31.792969v208c0 22.054688 17.945312 40 40 40h160c22.054688 0 40-17.945312 40-40v-208c0-13.015625-6.34375-24.488281-16-31.792969zm-169.03125-56.207031h130.0625l4.441406 16h-138.945312zm169.03125 296c0 13.230469-10.769531 24-24 24h-160c-13.230469 0-24-10.769531-24-24v-208c0-13.230469 10.769531-24 24-24h120v-16h-128v-16h176v16h-32v16h24c13.230469 0 24 10.769531 24 24zm0 0" fill="#333333" data-original="#000000" class=""></path><path d="m0 336v88c0 39.703125 32.296875 72 72 72h96c39.703125 0 72-32.296875 72-72v-88zm168 144h-96c-30.871094 0-56-25.128906-56-56v-40h32v-16h-32v-16h208v16h-160v16h160v40c0 30.871094-25.128906 56-56 56zm0 0" fill="#333333" data-original="#000000" class=""></path><path d="m88 288c-13.230469 0-24-10.769531-24-24s10.769531-24 24-24 24 10.769531 24 24-10.769531 24-24 24zm0 0" fill="#ffa64d" data-original="#f0bc5e" class=""></path><path d="m456 16h-1.832031c-5.121094 0-10.121094.96875-14.847657 2.855469-21.808593 8.71875-44.769531 13.144531-68.242187 13.144531h-195.078125v-16h-33.472656c-3.3125-9.289062-12.113282-16-22.527344-16-6.167969 0-11.742188 2.40625-16 6.238281-4.257812-3.832031-9.832031-6.238281-16-6.238281s-11.742188 2.40625-16 6.238281c-4.257812-3.832031-9.832031-6.238281-16-6.238281-10.664062 0-19.625 7.039062-22.734375 16.679688-18.851563 3.222656-33.265625 19.578124-33.265625 39.320312s14.414062 36.097656 33.265625 39.320312c3.109375 9.640626 12.070313 16.679688 22.734375 16.679688 6.167969 0 11.742188-2.40625 16-6.238281 4.257812 3.839843 9.832031 6.238281 16 6.238281s11.742188-2.40625 16-6.238281c4.257812 3.839843 9.832031 6.238281 16 6.238281 10.414062 0 19.214844-6.710938 22.527344-16h33.472656v-16h195.078125c23.480469 0 46.441406 4.425781 68.226563 13.136719 4.742187 1.894531 9.742187 2.863281 14.863281 2.863281h1.832031c22.054688 0 40-17.945312 40-40s-17.945312-40-40-40zm-440 40c0-10.414062 6.710938-19.214844 16-22.527344v45.046875c-9.289062-3.304687-16-12.105469-16-22.519531zm40 40c-4.414062 0-8-3.59375-8-8v-64c0-4.40625 3.585938-8 8-8s8 3.59375 8 8v64c0 4.40625-3.585938 8-8 8zm72-8c0 4.40625-3.585938 8-8 8s-8-3.59375-8-8v-32h-16v32c0 4.40625-3.585938 8-8 8s-8-3.59375-8-8v-64c0-4.40625 3.585938-8 8-8s8 3.59375 8 8v16h16v-16c0-4.40625 3.585938-8 8-8s8 3.59375 8 8zm32-8h-16v-48h16zm296 0h-1.832031c-3.070313 0-6.070313-.574219-8.910157-1.71875-23.707031-9.472656-48.65625-14.28125-74.179687-14.28125h-195.078125v-16h195.078125c25.523437 0 50.480469-4.808594 74.179687-14.289062 2.839844-1.136719 5.839844-1.710938 8.910157-1.710938h1.832031c13.230469 0 24 10.769531 24 24s-10.769531 24-24 24zm0 0" fill="#333333" data-original="#000000" class=""></path><path d="m448 48h16v16h-16zm0 0" fill="#333333" data-original="#000000" class=""></path></g></svg>