<svg xmlns="http://www.w3.org/2000/svg" version="1.1" xmlns:xlink="http://www.w3.org/1999/xlink" xmlns:svgjs="http://svgjs.com/svgjs" width="512" height="512" x="0" y="0" viewBox="0 0 62.28 62" style="enable-background:new 0 0 512 512" xml:space="preserve" class=""><g><g><g><path d="m40 37v-3.859c-.321-.083-.653-.141-1-.141-2.209 0-4 1.791-4 4v5c2.757 0 5-2.243 5-5z" fill="#ffa64d" data-original="#f0bc5e" class=""></path></g><g><path d="m10 19v-3.859c-.321-.083-.653-.141-1-.141-2.209 0-4 1.791-4 4v5c2.757 0 5-2.243 5-5z" fill="#ffa64d" data-original="#f0bc5e" class=""></path></g><g><path d="m14 53v-3.859c-.321-.083-.653-.141-1-.141-2.209 0-4 1.791-4 4v5c2.757 0 5-2.243 5-5z" fill="#ffa64d" data-original="#f0bc5e" class=""></path></g><g><path d="m60.13 42.688 2.15-2.688-1.816-2.271c-.871-1.089-1.946-1.953-3.141-2.582l2.392-.718c1.346-.403 2.285-1.666 2.285-3.071 0-.346-.056-.687-.165-1.014l-.43-1.288c-1.002-3.007-2.716-5.781-4.957-8.021-.988-.99-2.534-1.245-3.811-.755-.772-.765-1.649-1.404-2.628-1.893-.505-.253-1.072-.387-1.638-.387-1.181 0-2.296.574-2.981 1.535-2.675 3.745-4.434 8.101-5.141 12.642-.402-.104-.816-.177-1.249-.177-.533 0-1.037.106-1.519.261-1.149-2.554-3.711-4.261-6.58-4.261h-.901v2h.901c2.137 0 4.029 1.314 4.821 3.255-.137.12-.269.242-.392.376-1.192-1.033-2.734-1.631-4.33-1.631h-1v2h1c1.236 0 2.432.51 3.291 1.385-.175.51-.291 1.047-.291 1.615v4.812c-.946-1.753-2.144-3.37-3.552-4.776-.989-.99-2.534-1.245-3.811-.755-.772-.765-1.649-1.404-2.628-1.893-.505-.254-1.072-.388-1.638-.388-1.181 0-2.296.574-2.981 1.535-2.675 3.745-4.434 8.101-5.141 12.642-.402-.104-.816-.177-1.249-.177-.533 0-1.037.106-1.519.261-1.149-2.554-3.711-4.261-6.58-4.261h-.901v2h.901c2.137 0 4.029 1.314 4.821 3.255-.137.12-.269.242-.392.376-1.192-1.033-2.734-1.631-4.33-1.631h-1v2h1c1.236 0 2.432.51 3.291 1.385-.175.51-.291 1.047-.291 1.615v5.651c0 1.847 1.503 3.349 3.35 3.349.606 0 1.202-.165 1.721-.477l.157-.094c1.114-.668 2.066-1.547 2.822-2.566.718.716 1.692 1.137 2.746 1.137.775 0 1.516-.224 2.148-.642l.058.058c1.666 1.667 3.882 2.584 6.238 2.584 2.695 0 5.206-1.207 6.89-3.312l2.15-2.688-1.816-2.271c-.871-1.089-1.946-1.953-3.141-2.582l2.392-.718c1.346-.403 2.285-1.666 2.285-3.071 0-.346-.056-.687-.165-1.014l-.294-.883c.522.338 1.141.539 1.809.539.606 0 1.202-.165 1.721-.477l.157-.094c1.114-.668 2.066-1.547 2.822-2.566.718.716 1.692 1.137 2.746 1.137.775 0 1.516-.224 2.148-.642l.058.058c1.666 1.667 3.882 2.584 6.238 2.584 2.696 0 5.206-1.207 6.89-3.312zm-5.096-20.239c2.022 2.022 3.569 4.525 4.475 7.239l.43 1.289c.04.123.061.251.061.381 0 .529-.354 1.004-.859 1.156l-5.216 1.565c-.403-.049-.809-.079-1.22-.079-1.418 0-2.801.306-4.078.882 1.243-3.691 3.66-6.871 6.927-9.05l-1.109-1.664c-3.834 2.556-6.607 6.356-7.914 10.752-.093-.07-.2-.117-.298-.179.699-4.79 3.053-9.162 6.709-12.361.589-.515 1.54-.484 2.092.069zm-8.017-1.752c.461-.645 1.392-.876 2.099-.521.691.345 1.318.784 1.883 1.301-3.554 3.361-5.888 7.763-6.678 12.584-.186-.023-.367-.061-.557-.061h-.789c-.247-.326-.534-.616-.852-.873.587-4.468 2.274-8.762 4.894-12.43zm-26 16c.461-.645 1.391-.875 2.099-.521.691.345 1.318.784 1.883 1.301-3.554 3.361-5.888 7.763-6.678 12.584-.186-.023-.367-.061-.557-.061h-.789c-.247-.326-.534-.616-.852-.873.587-4.468 2.274-8.762 4.894-12.43zm-8.817 23.017-.157.094c-.21.126-.449.192-.693.192-.745 0-1.35-.605-1.35-1.349v-5.651c0-1.654 1.346-3 3-3s3 1.346 3 3c0 2.735-1.457 5.308-3.8 6.714zm4.926-2.716c.558-1.245.874-2.601.874-3.998 0-.336-.036-.663-.099-.981.878.046 1.653.52 2.099 1.275v4.267c-.34.279-.758.439-1.204.439-.705 0-1.336-.386-1.67-1.002zm4.874.588v-4.051l.304-.203c.531-.354 1.105-.622 1.696-.837v6.68c-.579-.312-1.115-.705-1.584-1.174zm4 2.294v-7.829c.235-.02.468-.051.705-.051.439 0 .87.048 1.295.117v7.84c-.251.028-.504.043-.76.043-.417 0-.832-.043-1.24-.12zm6.901-4.902.819 1.022-1.152 1.439c-.696.871-1.58 1.536-2.567 1.972v-6.691c1.113.508 2.11 1.27 2.9 2.258zm.24-6.464-5.216 1.565c-.403-.049-.809-.079-1.22-.079-1.418 0-2.801.306-4.078.882 1.243-3.691 3.66-6.871 6.927-9.05l-1.109-1.664c-3.834 2.556-6.607 6.356-7.914 10.752-.093-.07-.2-.117-.298-.179.699-4.79 3.053-9.162 6.709-12.361.589-.515 1.539-.484 2.092.069 2.022 2.022 3.569 4.525 4.475 7.239l.43 1.289c.04.123.061.251.061.381 0 .529-.354 1.004-.859 1.156zm5.059-4.8-.157.094c-.21.126-.449.192-.693.192-.745 0-1.35-.605-1.35-1.349v-5.651c0-1.654 1.346-3 3-3s3 1.346 3 3c0 2.735-1.457 5.308-3.8 6.714zm4.926-2.716c.558-1.245.874-2.601.874-3.998 0-.336-.036-.663-.099-.981.878.046 1.653.52 2.099 1.275v4.267c-.34.279-.758.439-1.204.439-.705 0-1.336-.386-1.67-1.002zm4.874.588v-4.051l.304-.203c.531-.354 1.105-.622 1.696-.837v6.68c-.579-.312-1.115-.705-1.584-1.174zm4 2.294v-7.829c.235-.02.468-.051.705-.051.439 0 .87.048 1.295.117v7.84c-.251.028-.504.043-.76.043-.417 0-.832-.043-1.24-.12zm4-.468v-6.692c1.114.508 2.111 1.27 2.901 2.258l.819 1.022-1.152 1.439c-.697.872-1.581 1.536-2.568 1.973z" fill="#333333" data-original="#000000" class=""></path><path d="m52.764 29h4.472v2h-4.472z" transform="matrix(.894 -.447 .447 .894 -7.61 27.764)" fill="#333333" data-original="#000000" class=""></path><path d="m4.291 17.385c-.175.51-.291 1.047-.291 1.615v5.651c0 1.847 1.503 3.349 3.35 3.349.606 0 1.202-.165 1.721-.477l.157-.094c1.114-.668 2.066-1.547 2.822-2.566.718.716 1.692 1.137 2.746 1.137.775 0 1.516-.224 2.148-.642l.058.058c1.666 1.667 3.882 2.584 6.238 2.584 2.695 0 5.206-1.207 6.89-3.312l2.15-2.688-1.816-2.271c-.871-1.089-1.946-1.953-3.141-2.582l2.392-.718c1.346-.403 2.285-1.666 2.285-3.071 0-.346-.056-.687-.165-1.014l-.43-1.288c-1.002-3.007-2.716-5.781-4.957-8.021-.988-.991-2.534-1.245-3.811-.755-.772-.765-1.649-1.404-2.628-1.893-.505-.253-1.072-.387-1.638-.387-1.181 0-2.296.574-2.981 1.535-2.675 3.745-4.434 8.101-5.141 12.642-.402-.104-.816-.177-1.249-.177-.533 0-1.037.106-1.519.261-1.149-2.554-3.711-4.261-6.58-4.261h-.901v2h.901c2.137 0 4.029 1.314 4.821 3.255-.137.12-.269.242-.392.376-1.192-1.033-2.734-1.631-4.33-1.631h-1v2h1c1.236 0 2.432.51 3.291 1.385zm8.835 5.613c.558-1.245.874-2.601.874-3.998 0-.336-.036-.663-.099-.981.878.046 1.653.52 2.099 1.275v4.267c-.34.279-.758.439-1.204.439-.705 0-1.336-.386-1.67-1.002zm4.874.588v-4.051l.304-.203c.531-.354 1.105-.622 1.696-.837v6.68c-.579-.312-1.115-.705-1.584-1.174zm4 2.294v-7.829c.235-.02.468-.051.705-.051.439 0 .87.048 1.295.117v7.84c-.251.028-.504.043-.76.043-.417 0-.832-.043-1.24-.12zm6.901-4.902.819 1.022-1.152 1.439c-.696.871-1.58 1.536-2.567 1.972v-6.691c1.113.508 2.11 1.27 2.9 2.258zm-3.867-16.529c2.022 2.022 3.569 4.525 4.475 7.239l.43 1.289c.04.123.061.251.061.381 0 .529-.354 1.004-.859 1.156l-5.216 1.565c-.403-.049-.809-.079-1.22-.079-1.418 0-2.801.306-4.078.882 1.243-3.691 3.66-6.871 6.927-9.05l-1.109-1.664c-3.834 2.556-6.607 6.356-7.914 10.752-.093-.07-.2-.117-.298-.179.699-4.79 3.053-9.162 6.709-12.361.589-.515 1.54-.483 2.092.069zm-8.017-1.752c.461-.644 1.392-.876 2.099-.521.691.345 1.318.784 1.883 1.301-3.555 3.361-5.889 7.763-6.679 12.583-.185-.022-.366-.06-.556-.06h-.789c-.247-.326-.534-.616-.852-.873.587-4.468 2.274-8.762 4.894-12.43zm-5.017 16.303c0 2.735-1.457 5.308-3.8 6.714l-.157.094c-.21.126-.449.192-.693.192-.745 0-1.35-.605-1.35-1.349v-5.651c0-1.654 1.346-3 3-3s3 1.346 3 3z" fill="#333333" data-original="#000000" class=""></path><path d="m22.764 11h4.472v2h-4.472z" transform="matrix(.894 -.447 .447 .894 -2.727 12.447)" fill="#333333" data-original="#000000" class=""></path><path d="m26.764 45h4.472v2h-4.472z" transform="matrix(.894 -.447 .447 .894 -17.51 17.826)" fill="#333333" data-original="#000000" class=""></path><path d="m8 33c0-1.682-1.757-3-4-3s-4 1.318-4 3 1.757 3 4 3 4-1.318 4-3zm-6 0c0-.408.779-1 2-1s2 .592 2 1-.779 1-2 1-2-.592-2-1z" fill="#333333" data-original="#000000" class=""></path><path d="m58 12c2.243 0 4-1.318 4-3s-1.757-3-4-3-4 1.318-4 3 1.757 3 4 3zm0-4c1.221 0 2 .592 2 1s-.779 1-2 1-2-.592-2-1 .779-1 2-1z" fill="#333333" data-original="#000000" class=""></path><path d="m40 8c2.243 0 4-1.318 4-3s-1.757-3-4-3-4 1.318-4 3 1.757 3 4 3zm0-4c1.221 0 2 .592 2 1s-.779 1-2 1-2-.592-2-1 .779-1 2-1z" fill="#333333" data-original="#000000" class=""></path><path d="m44 56c-2.243 0-4 1.318-4 3s1.757 3 4 3 4-1.318 4-3-1.757-3-4-3zm0 4c-1.221 0-2-.592-2-1s.779-1 2-1 2 .592 2 1-.779 1-2 1z" fill="#333333" data-original="#000000" class=""></path><path d="m58 48c-2.243 0-4 1.318-4 3s1.757 3 4 3 4-1.318 4-3-1.757-3-4-3zm0 4c-1.221 0-2-.592-2-1s.779-1 2-1 2 .592 2 1-.779 1-2 1z" fill="#333333" data-original="#000000" class=""></path><circle cx="15" cy="31" r="1" fill="#333333" data-original="#000000" class=""></circle><circle cx="9" cy="41" r="1" fill="#333333" data-original="#000000" class=""></circle><circle cx="27" cy="31" r="1" fill="#333333" data-original="#000000" class=""></circle><circle cx="39" cy="49" r="1" fill="#333333" data-original="#000000" class=""></circle><circle cx="51" cy="1" r="1" fill="#333333" data-original="#000000" class=""></circle><circle cx="46" cy="13" r="1" fill="#333333" data-original="#000000" class=""></circle><circle cx="35" cy="17" r="1" fill="#333333" data-original="#000000" class=""></circle><circle cx="51" cy="55" r="1" fill="#333333" data-original="#000000" class=""></circle></g></g></g></svg>