<svg xmlns="http://www.w3.org/2000/svg" version="1.1" xmlns:xlink="http://www.w3.org/1999/xlink" xmlns:svgjs="http://svgjs.com/svgjs" width="512" height="512" x="0" y="0" viewBox="0 0 496.00417 496" style="enable-background:new 0 0 512 512" xml:space="preserve" class=""><g><path d="m207.28125 376.003906c-10.160156 10.316406-20.960938 18.15625-31.28125 24.078125v-.078125c-44.480469 0-83.921875-20.160156-106.320312-44.5625-2.960938-17.28125-5.121094-37.28125-5.601563-59.28125 16.082031 31.84375 95.203125 79.363282 143.203125 79.84375zm0 0" fill="#ffa64d" data-original="#f0bc5e" class=""></path><path d="m248 296.003906 1.839844.398438c-2.71875 11.601562-6.238282 22.078125-10.398438 31.601562-56-.402344-135.519531-56.082031-159.441406-88l-1.839844-1.28125c6.078125-9.28125 13.679688-16.878906 21.601563-22.960937l4.238281.242187c24 32 112 80 144 80zm0 0" fill="#ffa64d" data-original="#f0bc5e" class=""></path><path d="m456 384.003906c-15.664062 0-29.824219 6.476563-40 16.886719v-96.886719h-16v32.886719c-10.175781-10.410156-24.335938-16.886719-40-16.886719h-40v8c0 30.871094 25.121094 56 56 56h24v32.886719c-10.175781-10.410156-24.335938-16.886719-40-16.886719h-40v8c0 30.871094 25.121094 56 56 56h24v16h-48v16h112v-16h-48v-32h24c30.878906 0 56-25.128906 56-56v-8zm-80-16c-19.320312 0-35.480469-13.769531-39.191406-32h23.191406c19.320312 0 35.480469 13.765625 39.191406 32zm0 80c-19.320312 0-35.480469-13.769531-39.191406-32h23.191406c19.320312 0 35.480469 13.765625 39.191406 32zm64-16h-23.191406c3.710937-18.234375 19.878906-32 39.191406-32h23.191406c-3.710937 18.230469-19.871094 32-39.191406 32zm0 0" fill="#333333" data-original="#000000" class=""></path><path d="m327.273438 135.921875c-2.664063-18.625-12.328126-37.085937-27.21875-51.976563-13.109376-13.109374-28.992188-22.160156-45.3125-25.953124l-5.886719-23.535157 12.800781-12.800781-11.3125-11.308594-19.199219 19.199219 6.632813 26.535156c-7.113282.023438-13.824219 1.160157-19.96875 3.375l-16.34375-27.238281 13.191406-19.792969-13.3125-8.871093-18.808594 28.207031 21.199219 35.335937c-1.597656 1.25-3.132813 2.585938-4.582031 4.039063-12.082032 12.082031-17.199219 29.457031-14.425782 48.929687.203126 1.40625.519532 2.808594.800782 4.207032l-32.296875-91.488282c-6.917969-19.613281-25.542969-32.78124975-46.335938-32.78124975-2.757812 0-5.351562.20703175-7.957031.63671875-40.097656 6.730469-82.9375 33.203125-82.9375 87.363281 0 13.285156 3.609375 25 9.519531 35.359375-16.894531 15.597657-25.519531 35.976563-25.519531 60.640625 0 31.261719 20.34375 58.511719 58.921875 79.261719-1.84375 7.550781-2.921875 15.753906-2.921875 24.738281 0 80.710938 23.640625 136.804688 24.648438 139.148438l3.335937 7.808594 7.589844-3.800782c.144531-.070312 14.570312-7.15625 36.425781-7.15625 35.753906 0 132.847656-42.335937 135.855469-177.601562 13.921875-4.214844 24.144531-17.015625 24.144531-32.289063v-6.109375c0-3.152344-.542969-6.265625-1.40625-9.273437 10.148438-2.097657 19.132812-6.753907 26.261719-13.871094 12.082031-12.082031 17.199219-29.457031 14.417969-48.9375zm-71.273438-55.917969c8.824219 0 16 7.175782 16 16 0 8.820313-7.175781 16-16 16s-16-7.179687-16-16c0-8.824218 7.175781-16 16-16zm-154.425781-63.578125c1.714843-.28125 3.449219-.421875 5.320312-.421875 14.015625 0 26.578125 8.878906 31.25 22.109375l32.101563 90.976563c-2.726563-.703125-5.542969-1.085938-8.359375-1.085938-1.496094 0-2.925781.253906-4.367188.4375l-38.136719-91.519531-14.765624 6.160156 37.933593 91.046875c-2.679687 1.875-5 4.191406-7.039062 6.746094l-66.199219-58.847656-10.632812 11.949218 69.90625 62.136719c-.328126 1.890625-.585938 3.800781-.585938 5.777344v6.113281c0 1.230469.128906 2.429688.246094 3.628906-31.789063-9.472656-96.246094-34.71875-96.246094-83.628906 0-55.59375 53.265625-68.84375 69.574219-71.578125zm-85.574219 167.578125c0-19.21875 6.390625-35.113281 18.839844-47.394531 27.128906 31.703125 76.257812 47.335937 97.511718 52.855469-20.597656 7.539062-53.183593 24.378906-68.230468 58.410156-24.03125-13.417969-48.121094-34.242188-48.121094-63.871094zm112 224c-15.425781 0-27.816406 3.078125-35.390625 5.605469-6.167969-17.390625-20.609375-64.574219-20.609375-125.605469 0-65.914062 64.992188-84.394531 78.921875-87.601562l88.039063 44.015625c2.800781 1.398437 5.800781 2.351562 8.871093 2.9375-3.503906 132.414062-100.449219 160.648437-119.832031 160.648437zm144-193.890625c0 9.863281-8.023438 17.890625-17.886719 17.890625-2.761719 0-5.527343-.65625-8-1.890625l-92.226562-46.109375c-6.09375-3.050781-9.886719-9.179687-9.886719-16v-6.113281c0-9.863281 8.023438-17.886719 17.886719-17.886719 2.761719 0 5.527343.652344 8 1.886719l33.984375 16.992187c2.503906 3.167969 5.160156 6.253907 8.074218 9.175782 14.886719 14.886718 33.351563 24.550781 51.976563 27.214844 2.046875.289062 4.015625.320312 6.015625.441406 1.328125 2.550781 2.0625 5.390625 2.0625 8.289062zm29.535156-40.574219c-8.4375 8.429688-21.015625 11.925782-35.351562 9.894532-15.214844-2.175782-30.464844-10.230469-42.925782-22.695313-12.457031-12.464843-20.515624-27.703125-22.691406-42.921875-2.046875-14.367187 1.464844-26.925781 9.898438-35.359375 6.167968-6.167969 14.605468-9.542969 24.277344-10.199219-6.542969 5.871094-10.742188 14.289063-10.742188 23.746094 0 17.644532 14.351562 32 32 32s32-14.355468 32-32c0-.546875-.136719-1.050781-.160156-1.585937.296875.289062.609375.542969.902344.839843 12.457031 12.464844 20.515624 27.703126 22.691406 42.921876 2.054687 14.367187-1.457032 26.933593-9.898438 35.359374zm0 0" fill="#333333" data-original="#000000" class=""></path><path d="m392.039062 312.011719c-3.222656 0-6.480468-.410157-9.71875-1.226563-13.871093-3.496094-25.0625-14.71875-29.167968-29.296875-.207032-.71875-.390625-1.453125-.542969-2.183593-18.53125-3.496094-32.609375-19.816407-32.609375-39.300782 0-5.523437 1.160156-10.882812 3.457031-16-3.65625-8.167968-4.441406-16.953125-2.234375-25.683594 3.496094-13.871093 14.722656-25.0625 29.296875-29.167968.71875-.207032 1.457031-.390625 2.183594-.542969 3.488281-18.527344 19.808594-32.605469 39.296875-32.605469 5.519531 0 10.878906 1.15625 16 3.453125 8.167969-3.648437 16.960938-4.445312 25.679688-2.230469 13.871093 3.496094 25.0625 14.71875 29.167968 29.296876.207032.71875.390625 1.453124.542969 2.183593 18.53125 3.488281 32.609375 19.808594 32.609375 39.296875 0 5.519532-1.160156 10.878906-3.457031 16 3.65625 8.167969 4.441406 16.949219 2.234375 25.679688-3.496094 13.871094-14.722656 25.0625-29.296875 29.167968-.71875.207032-1.457031.390626-2.183594.542969-3.488281 18.527344-19.808594 32.609375-39.296875 32.609375-5.519531 0-10.878906-1.160156-16-3.457031-5.136719 2.296875-10.503906 3.464844-15.960938 3.464844zm0 0" fill="#ffa64d" data-original="#f0bc5e" class=""></path><path d="m408 256.003906c17.648438 0 32-14.355468 32-32 0-17.648437-14.351562-32-32-32s-32 14.351563-32 32c0 17.644532 14.351562 32 32 32zm0-48c8.824219 0 16 7.175782 16 16 0 8.820313-7.175781 16-16 16s-16-7.179687-16-16c0-8.824218 7.175781-16 16-16zm0 0" fill="#333333" data-original="#000000" class=""></path><path d="m480 480.003906h16v16h-16zm0 0" fill="#333333" data-original="#000000" class=""></path><path d="m320 480.003906h16v16h-16zm0 0" fill="#333333" data-original="#000000" class=""></path></g></svg>