<svg xmlns="http://www.w3.org/2000/svg" version="1.1" xmlns:xlink="http://www.w3.org/1999/xlink" xmlns:svgjs="http://svgjs.com/svgjs" width="512" height="512" x="0" y="0" viewBox="0 0 62 62" style="enable-background:new 0 0 512 512" xml:space="preserve" class=""><g><g><g><path d="m42 13c0-1.712-.747-3.345-2.025-4.479.017-.176.025-.35.025-.521 0-3.309-2.691-6-6-6-.036 0-.071.001-.107.002-1.305-1.278-3.06-2.002-4.893-2.002-1.336 0-2.614.372-3.731 1.082-2.623-1.419-5.914-1.419-8.537 0-1.118-.71-2.396-1.082-3.732-1.082-1.833 0-3.588.724-4.893 2.002-.036-.001-.071-.002-.107-.002-3.309 0-6 2.691-6 6 0 .171.008.345.025.521-1.278 1.134-2.025 2.767-2.025 4.479 0 1.116.31 2.184.904 3.131-.588.835-.904 1.828-.904 2.869 0 1.434.617 2.8 1.693 3.75l.001.001c.72-1.057 1.931-1.751 3.306-1.751h2v-3c0-2.761 2.239-5 5-5 .912 1.214 2.365 2 4 2h14c2.761 0 5 2.239 5 5v1h2c1.375 0 2.586.694 3.306 1.751l.001-.001c1.076-.95 1.693-2.316 1.693-3.75 0-1.041-.316-2.034-.904-2.869.594-.947.904-2.015.904-3.131z" fill="#ffa64d" data-original="#f0bc5e" class=""></path></g><g><path d="m14.135 32.494-1.306 2.611.971 1.294c1.691 2.255 4.382 3.601 7.2 3.601s5.509-1.346 7.2-3.6l.971-1.295-1.306-2.611c-.769-1.538-2.315-2.494-4.036-2.494-.696 0-1.394.165-2.018.476l-.811.406-.812-.406c-.623-.311-1.321-.476-2.017-.476-1.721 0-3.267.956-4.036 2.494zm1.983 3.506h9.765c-1.297 1.262-3.053 2-4.883 2s-3.585-.738-4.882-2zm2.053-4c.388 0 .776.092 1.124.265l1.705.853 1.705-.853c.348-.173.736-.265 1.124-.265.958 0 1.819.532 2.247 1.389l.306.611h-10.764l.306-.611c.428-.857 1.289-1.389 2.247-1.389z" fill="#333333" data-original="#000000" class=""></path><path d="m12 21.277v1.723c0 1.654 1.346 3 3 3s3-1.346 3-3v-2.323c0-1.476-1.201-2.677-2.677-2.677-.343 0-.678.064-.994.191l-4.7 1.88.743 1.857zm2-.8 1.073-.429c.425-.17.927.17.927.629v2.323c0 .551-.449 1-1 1s-1-.449-1-1z" fill="#333333" data-original="#000000" class=""></path><path d="m27 26c1.654 0 3-1.346 3-3v-1.723l1.628.651.743-1.857-4.699-1.879c-.317-.128-.652-.192-.995-.192-1.476 0-2.677 1.201-2.677 2.677v2.323c0 1.654 1.346 3 3 3zm-1-5.323c0-.373.304-.677.677-.677.086 0 .17.016.251.049l1.072.428v2.523c0 .551-.449 1-1 1s-1-.449-1-1z" fill="#333333" data-original="#000000" class=""></path><circle cx="11" cy="27" r="1" fill="#333333" data-original="#000000" class=""></circle><circle cx="13" cy="31" r="1" fill="#333333" data-original="#000000" class=""></circle><circle cx="9" cy="33" r="1" fill="#333333" data-original="#000000" class=""></circle><circle cx="9" cy="37" r="1" fill="#333333" data-original="#000000" class=""></circle><circle cx="13" cy="39" r="1" fill="#333333" data-original="#000000" class=""></circle><circle cx="31" cy="27" r="1" fill="#333333" data-original="#000000" class=""></circle><circle cx="29" cy="31" r="1" fill="#333333" data-original="#000000" class=""></circle><circle cx="33" cy="33" r="1" fill="#333333" data-original="#000000" class=""></circle><circle cx="31" cy="37" r="1" fill="#333333" data-original="#000000" class=""></circle><circle cx="29" cy="39" r="1" fill="#333333" data-original="#000000" class=""></circle><path d="m60 44h-8.184c-.133-.374-.335-.711-.596-1 .48-.532.78-1.229.78-2 0-.628-.195-1.21-.526-1.692 6.137-1.928 10.526-7.703 10.526-14.308 0-8.271-6.729-15-15-15-1.856 0-3.648.349-5.353 1.003.227.635.353 1.309.353 1.997 0 .006-.001.012-.001.018 1.583-.663 3.259-1.018 5.001-1.018 7.168 0 13 5.832 13 13 0 3.187-1.18 6.152-3.142 8.444l-6.858-6.858v-9.586c0-1.654-1.346-3-3-3s-3 1.346-3 3v3.586l-2.034-2.034c.013.149.034.297.034.448 0 .694-.148 1.372-.419 1.995l2.419 2.419v14.233c-2.25-.535-4.339-1.681-6.015-3.294-.033-1.535-.446-3.016-1.185-4.353h.2c2.757 0 5-2.243 5-5s-2.243-5-5-5h-1v-4c0-4.411-3.589-8-8-8h-2v2h2c3.146 0 5.729 2.435 5.976 5.518-1.06-.941-2.45-1.518-3.976-1.518h-14c-2.206 0-4-1.794-4-4h-2c0 .783.155 1.529.429 2.216-2.548.693-4.429 3.02-4.429 5.784v2h-1c-2.757 0-5 2.243-5 5s2.243 5 5 5h.2c-.772 1.396-1.2 2.949-1.2 4.557 0 4.778 3.57 8.729 8.181 9.349-3.749 2.42-6.181 6.628-6.181 11.292v6.802h30v-4.836c2.742 2.965 6.652 4.836 11 4.836 8.271 0 15-6.729 15-15v-1c0-1.103-.897-2-2-2zm0 3c0 .338-.025.669-.051 1h-8.134c-.133-.374-.335-.711-.596-1 .26-.289.463-.626.596-1h8.185zm-10 2c0 1.654-1.346 3-3 3s-3-1.346-3-3c0-.552.449-1 1-1h4c.551 0 1 .448 1 1zm-15.949-1c-.026-.331-.051-.662-.051-1v-1h8.184c.133.374.335.711.596 1-.261.289-.463.626-.596 1zm-4.239-4.093c3.876-.519 7.009-3.392 7.914-7.134 1.434 1.127 3.06 1.996 4.794 2.542-.327.48-.52 1.06-.52 1.685 0 .771.301 1.468.78 2-.261.289-.463.626-.596 1h-8.184c-.995 0-1.815.732-1.968 1.684-.676-.671-1.421-1.264-2.22-1.777zm-13.639.33c.555 2.157 2.499 3.763 4.827 3.763 2.326 0 4.27-1.604 4.825-3.76.756.226 1.485.528 2.175.902v14.858h-14v-14.85c.685-.373 1.409-.685 2.173-.913zm2.011-.237h5.631c-.414 1.161-1.514 2-2.816 2s-2.401-.839-2.815-2zm30.816-4c.551 0 1 .448 1 1s-.449 1-1 1h-4c-.551 0-1-.448-1-1s.449-1 1-1zm1 5c0 .552-.449 1-1 1h-4c-.551 0-1-.448-1-1s.449-1 1-1h4c.551 0 1 .448 1 1zm5.441-10.145c-1.54 1.327-3.39 2.309-5.441 2.795v-8.236zm-8.441-18.855c.551 0 1 .449 1 1v21h-2v-21c0-.551.449-1 1-1zm-10 6c1.654 0 3 1.346 3 3s-1.346 3-3 3h-1v-1.465l2.555-1.703-1.109-1.664-1.446.964v-2.132zm-35 3c0-1.654 1.346-3 3-3h1v2.132l-1.445-.964-1.109 1.664 2.554 1.703v1.465h-1c-1.654 0-3-1.346-3-3zm4 9.557c0-1.475.432-2.902 1.25-4.129l.75-1.125v-11.303c0-2.061 1.573-3.744 3.579-3.957 1.098 1.199 2.671 1.957 4.421 1.957h14c2.206 0 4 1.794 4 4v9.303l.75 1.125c.818 1.227 1.25 2.654 1.25 4.129 0 4.104-3.339 7.443-7.443 7.443h-15.114c-4.104 0-7.443-3.339-7.443-7.443zm2 20.641c0-3.421 1.535-6.556 4-8.677v13.479h-4zm26 0v4.802h-4v-13.483c.823.704 1.545 1.529 2.144 2.448.257 1.953.886 3.788 1.822 5.431.019.265.034.533.034.802zm13 4.802c-6.134 0-11.277-4.276-12.637-10h7.738c.465 2.279 2.484 4 4.899 4s4.434-1.721 4.899-4h7.738c-1.36 5.724-6.503 10-12.637 10z" fill="#333333" data-original="#000000" class=""></path><circle cx="39" cy="53" r="1" fill="#333333" data-original="#000000" class=""></circle><circle cx="55" cy="53" r="1" fill="#333333" data-original="#000000" class=""></circle><circle cx="43" cy="55" r="1" fill="#333333" data-original="#000000" class=""></circle><circle cx="47" cy="57" r="1" fill="#333333" data-original="#000000" class=""></circle><circle cx="51" cy="55" r="1" fill="#333333" data-original="#000000" class=""></circle></g></g></g></svg>