<svg xmlns="http://www.w3.org/2000/svg" version="1.1" xmlns:xlink="http://www.w3.org/1999/xlink" xmlns:svgjs="http://svgjs.com/svgjs" width="512" height="512" x="0" y="0" viewBox="0 0 496 496" style="enable-background:new 0 0 512 512" xml:space="preserve" class=""><g>
<g>
	<rect x="8" y="274.312" style="" width="256" height="160" fill="#ffa64d" data-original="#ffa64d"></rect>
	<path style="" d="M464,298.312v-56c0-17.672-14.328-32-32-32h-48c-8.84,0-16,7.16-16,16v80c0,8.84,7.16,16,16,16l0,0
		c8.84,0,16-7.16,16-16v-16c0-8.84,7.16-16,16-16l0,0c8.84,0,16,7.16,16,16v48c0,8.84,7.16,16,16,16l0,0c8.84,0,16-7.16,16-16v-24
		V298.312z" fill="#ffa64d" data-original="#ffa64d"></path>
</g>
<g>
	<path style="" d="M180.944,330.312l-16-32h-57.888l-16,32h-48l-20,40l20,40h57.888l16-32h38.112l16,32h57.888l20-40
		l-20-40H180.944z M116.944,314.312h38.112l12,24l-12,24h-38.112l-12-24L116.944,314.312z M91.056,394.312H52.944l-12-24l12-24
		h38.112l12,24L91.056,394.312z M219.056,394.312h-38.112l-12-24l12-24h38.112l12,24L219.056,394.312z" fill="#333333" data-original="#333333" class=""></path>
	<path style="" d="M469.768,229.696c-5.32-15.856-20.152-27.384-37.768-27.384h-48c-10.416,0-19.216,6.712-22.528,16
		h-43.584c-21.696,0-40.784,11.24-51.832,28.184c-2.592-5.56-5.944-10.768-10.056-15.36V208.84c9.288-3.312,16-12.112,16-22.528v-16
		c0-13.232-10.768-24-24-24H24c-13.232,0-24,10.768-24,24v16c0,10.416,6.712,19.216,16,22.528v22.296C5.8,242.552,0,257.6,0,272.944
		v177.368c0,22.056,17.944,40,40,40h192c22.056,0,40-17.944,40-40v-35.456c2.448,2.712,5.064,5.28,8,7.544v67.912h192v-67.904
		c15.104-11.688,24-29.672,24-48.936V280.2C496,260.056,486.192,241.304,469.768,229.696z M448,362.312v11.152
		c0,4.656-2.312,8.976-6.2,11.56L424,396.912v45.4h-96v-45.4l-17.808-11.88c-3.88-2.584-6.192-6.904-6.192-11.568V280.2
		c0-7.656,6.232-13.888,13.888-13.888H360v40c0,13.232,10.768,24,24,24s24-10.768,24-24v-16c0-4.416,3.584-8,8-8s8,3.584,8,8v48
		C424,351.544,434.768,362.312,448,362.312z M256,450.312c0,13.232-10.768,24-24,24H40c-13.232,0-24-10.768-24-24V272.936
		c0-12.272,4.976-24.288,13.656-32.968L32,237.624v-27.312h176v-16H24c-4.416,0-8-3.584-8-8v-16c0-4.416,3.584-8,8-8h224
		c4.416,0,8,3.584,8,8v16c0,4.416-3.584,8-8,8h-24v16h16v27.312l2.344,2.344c8.68,8.68,13.656,20.696,13.656,32.968v7.264v93.264
		V450.312z M480,373.464c0,15.376-7.64,29.648-20.44,38.184l-3.56,2.384v60.28H296v-60.28l-3.56-2.376
		C279.64,403.12,272,388.84,272,373.464V280.2c0-25.304,20.584-45.888,45.888-45.888H360v16h-42.112
		c-16.48,0-29.888,13.408-29.888,29.888v93.264c0,10.016,4.976,19.32,13.312,24.872L312,405.48v52.832h128V405.48l10.68-7.136
		c8.344-5.552,13.32-14.864,13.32-24.88v-17.392c4.872-4.392,8-10.696,8-17.76v-24h-16v24c0,4.416-3.584,8-8,8s-8-3.584-8-8v-48
		c0-13.232-10.768-24-24-24s-24,10.768-24,24v16c0,4.416-3.584,8-8,8s-8-3.584-8-8v-80c0-4.416,3.584-8,8-8h48
		c13.232,0,24,10.768,24,24v56h16v-43.96c5.128,7.52,8,16.48,8,25.848V373.464z" fill="#333333" data-original="#333333" class=""></path>
	<rect x="320" y="282.312" style="" width="16" height="16" fill="#333333" data-original="#333333" class=""></rect>
	<rect x="336" y="314.312" style="" width="16" height="16" fill="#333333" data-original="#333333" class=""></rect>
	<rect x="392" y="410.312" style="" width="16" height="16" fill="#333333" data-original="#333333" class=""></rect>
	<rect x="368" y="378.312" style="" width="16" height="16" fill="#333333" data-original="#333333" class=""></rect>
	<rect x="392" y="346.312" style="" width="16" height="16" fill="#333333" data-original="#333333" class=""></rect>
	<rect x="320" y="362.312" style="" width="16" height="16" fill="#333333" data-original="#333333" class=""></rect>
	<rect x="344" y="410.312" style="" width="16" height="16" fill="#333333" data-original="#333333" class=""></rect>
	<rect x="352" y="346.312" style="" width="16" height="16" fill="#333333" data-original="#333333" class=""></rect>
	<path style="" d="M322.496,143.928c8.456,0,17.936-2.92,27.04-8.36c6.192,11.704,15.84,18.744,26.584,18.744
		c10.792,0,20.368-6.976,26.552-18.624c9.048,5.368,18.44,8.24,26.84,8.24c7.448,0,14.096-2.208,18.984-6.832
		c4.912-4.616,7.504-11.032,7.504-18.544c0-12.496-7.296-26.832-19.52-38.344c-8.568-8.08-18.224-13.416-27.52-16.096
		c0.368-1.912,0.624-3.84,0.624-5.8c0-10.64-5.512-20.008-13.888-25.832l12.416-17.552l-13.064-9.232l-14.864,21.008
		c-1.344-0.16-2.672-0.392-4.064-0.392s-2.712,0.232-4.064,0.392L357.184,5.688l-13.064,9.248l12.416,17.544
		c-8.376,5.824-13.888,15.192-13.888,25.832c0,1.936,0.248,3.848,0.608,5.736c-9.368,2.656-19.104,8.016-27.744,16.16
		C303.296,91.72,296,106.056,296,118.552c0,7.512,2.592,13.92,7.504,18.544C308.4,141.72,315.048,143.928,322.496,143.928z
		 M376.12,138.312c-5.128,0-10.264-4.8-13.64-12.504c0.008-0.008,0.016-0.016,0.024-0.016c5.648-5.32,10.192-11.256,13.504-17.328
		c3.312,6.072,7.848,12,13.504,17.328c0.056,0.048,0.112,0.096,0.16,0.144C386.296,133.472,381.184,138.312,376.12,138.312z
		 M440,118.552c0,3.032-0.832,5.352-2.48,6.904c-5.92,5.576-23,1.92-37.056-11.312c-8.928-8.424-14.488-18.648-14.488-26.704
		c0-3.032,0.832-5.36,2.48-6.912c1.776-1.672,4.552-2.504,7.96-2.504c7.936,0,19.264,4.568,29.096,13.832
		C436.192,101.912,440,112.24,440,118.552z M393.584,58.312c0,1.416-0.216,2.792-0.6,4.128c-5.992,0.608-11.4,2.592-15.488,6.448
		c-0.568,0.528-0.992,1.168-1.496,1.744c-0.504-0.576-0.928-1.216-1.496-1.744c-4.04-3.8-9.352-5.784-15.248-6.424
		c-0.392-1.344-0.608-2.728-0.608-4.152c0-8.824,7.832-16,17.464-16C385.752,42.312,393.584,49.488,393.584,58.312z M326.48,91.848
		c9.832-9.256,21.16-13.832,29.096-13.832c3.408,0,6.184,0.832,7.96,2.504c1.64,1.552,2.48,3.88,2.48,6.912
		c0,8.056-5.552,18.28-14.488,26.704c-14.048,13.232-31.144,16.888-37.056,11.312c-1.64-1.544-2.472-3.864-2.472-6.896
		C312,112.24,315.808,101.912,326.48,91.848z" fill="#333333" data-original="#333333" class=""></path>
</g>
<g>
</g>
<g>
</g>
<g>
</g>
<g>
</g>
<g>
</g>
<g>
</g>
<g>
</g>
<g>
</g>
<g>
</g>
<g>
</g>
<g>
</g>
<g>
</g>
<g>
</g>
<g>
</g>
<g>
</g>
</g></svg>